<svg xmlns="http://www.w3.org/2000/svg" xmlns:xlink="http://www.w3.org/1999/xlink" width="500" zoomAndPan="magnify" viewBox="0 0 375 374.999991" height="500" preserveAspectRatio="xMidYMid meet" version="1.0"><defs><filter x="0%" y="0%" width="100%" height="100%" id="d40b5efdbb"><feColorMatrix values="0 0 0 0 1 0 0 0 0 1 0 0 0 0 1 0 0 0 1 0" color-interpolation-filters="sRGB"/></filter><mask id="0e05a4b6ef"><g filter="url(#d40b5efdbb)"><rect x="-37.5" width="450" fill="#000000" y="-37.499999" height="449.999989" fill-opacity="0.59"/></g></mask><clipPath id="0e5e93bef2"><rect x="0" width="284" y="0" height="263"/></clipPath></defs><g mask="url(#0e05a4b6ef)"><g transform="matrix(1, 0, 0, 1, 46, 55)"><g clip-path="url(#0e5e93bef2)"><path stroke-linecap="butt" transform="matrix(0.75, 0, 0, 0.75, -45.999996, -64.749999)" fill="none" stroke-linejoin="miter" d="M 250.354177 191.395845 L 250.354177 89.197922 L 306.682306 89.197922 L 306.682306 359.000023 L 250.354177 359.000023 L 250.354177 237.994806 L 145.130212 237.994806 L 145.130212 359.000023 L 88.807291 359.000023 L 88.807291 89.197922 L 145.130212 89.197922 L 145.130212 191.395845 Z M 357.442726 359.000023 L 357.442726 89.197922 L 413.864605 89.197922 L 413.864605 359.000023 Z M 357.442726 359.000023 " stroke="#cb6ce6" stroke-width="2.583412" stroke-opacity="1" stroke-miterlimit="4"/></g></g></g></svg>