<svg xmlns="http://www.w3.org/2000/svg" xmlns:xlink="http://www.w3.org/1999/xlink" width="100" zoomAndPan="magnify" viewBox="0 0 75 74.999997" height="100" preserveAspectRatio="xMidYMid meet" version="1.0"><defs><clipPath id="fe14bb3080"><path d="M 15.066406 20.28125 L 61.566406 20.28125 L 61.566406 48.78125 L 15.066406 48.78125 Z M 15.066406 20.28125 " clip-rule="nonzero"/></clipPath></defs><g clip-path="url(#fe14bb3080)"><path fill="#874ff7" d="M 25.941406 29.976562 L 20.179688 48.414062 L 24.628906 48.414062 L 27.960938 37.835938 L 28.273438 36.847656 Z M 25.164062 27.6875 L 22.988281 21.285156 L 21.8125 24.867188 L 15.066406 48.414062 L 18.6875 48.414062 Z M 49.390625 24.40625 L 41.886719 48.414062 L 45.765625 48.414062 L 49.066406 37.929688 L 49.378906 38.921875 L 52.367188 48.414062 L 56.617188 48.414062 Z M 28.867188 20.292969 L 24.789062 20.292969 C 24.746094 20.292969 24.714844 20.335938 24.695312 20.375 C 24.667969 20.433594 24.648438 20.539062 24.683594 20.644531 L 25.699219 23.742188 L 33.808594 48.414062 L 37.328125 48.414062 Z M 38.816406 48.414062 L 40.394531 48.414062 L 48.65625 21.972656 L 48.152344 20.292969 L 45.402344 20.292969 C 45.359375 20.292969 45.316406 20.335938 45.292969 20.40625 L 39.792969 37.148438 L 34.289062 20.40625 C 34.265625 20.335938 34.222656 20.292969 34.179688 20.292969 L 30.351562 20.292969 Z M 50.675781 20.292969 L 52.582031 20.292969 C 52.625 20.292969 52.667969 20.335938 52.691406 20.40625 L 53.882812 24.035156 L 61.894531 48.414062 L 58.105469 48.414062 L 50.148438 21.980469 L 50.675781 20.292969 " fill-opacity="1" fill-rule="nonzero"/></g></svg>